<?xml version="1.0" standalone="no"?>
<!DOCTYPE svg PUBLIC "-//W3C//DTD SVG 20010904//EN"
 "http://www.w3.org/TR/2001/REC-SVG-20010904/DTD/svg10.dtd">
<svg version="1.0" xmlns="http://www.w3.org/2000/svg"
 width="700.000000pt" height="700.000000pt" viewBox="0 0 700.000000 700.000000"
 preserveAspectRatio="xMidYMid meet">
<metadata>
Created by potrace 1.11, written by Peter Selinger 2001-2013
</metadata>
<g transform="translate(0.000000,700.000000) scale(0.100000,-0.100000)"
fill="#000000" stroke="none">
<path d="M1232 6739 c-50 -25 -52 -30 -177 -414 -140 -432 -182 -561 -238
-730 -27 -82 -50 -154 -52 -160 -1 -5 -5 -17 -8 -25 -3 -8 -30 -91 -60 -185
-30 -93 -113 -350 -185 -570 -72 -220 -149 -461 -172 -535 -69 -225 -129 -418
-170 -550 -21 -69 -55 -179 -75 -245 -20 -66 -48 -156 -61 -200 -37 -120 -34
-193 9 -265 30 -51 32 -53 319 -261 145 -104 270 -195 278 -202 20 -16 215
-158 244 -177 12 -8 37 -27 56 -41 19 -14 548 -399 1175 -854 627 -455 1196
-869 1265 -920 69 -52 127 -90 130 -86 3 4 115 87 250 185 135 98 272 198 305
223 159 116 1513 1102 1556 1132 20 14 123 89 229 166 105 77 213 156 240 175
27 19 154 111 282 204 209 152 265 194 305 226 7 6 15 10 18 10 4 0 12 6 19
13 7 6 57 43 110 82 121 88 162 147 168 245 3 41 -21 158 -33 166 -5 3 -9 13
-9 22 0 9 -13 58 -29 107 -16 50 -48 153 -71 230 -23 77 -45 149 -50 160 -4
11 -31 99 -60 195 -29 96 -61 200 -71 230 -9 30 -31 100 -49 155 -35 112 -104
325 -220 680 -43 132 -132 407 -199 610 -66 204 -139 429 -162 500 -24 72 -44
135 -45 140 -9 35 -166 504 -175 522 -16 30 -82 61 -123 58 -74 -4 -121 -43
-141 -115 -7 -28 -268 -831 -290 -895 -8 -22 -69 -209 -136 -415 -66 -206
-131 -406 -144 -445 -106 -320 -185 -568 -185 -580 0 -7 -5 -17 -11 -21 -9 -5
-2340 -9 -2545 -5 l-32 1 -77 238 c-42 130 -92 282 -110 337 -18 55 -88 269
-155 475 -67 206 -125 386 -130 400 -5 14 -68 207 -140 430 -72 223 -141 434
-153 468 -23 68 -67 121 -101 123 -12 1 -33 3 -47 4 -15 2 -45 -5 -67 -16z"/>
</g>
</svg>
